<svg width="20" height="20" viewBox="0 0 20 20" fill="none" xmlns="http://www.w3.org/2000/svg">
<path d="M10 17.5V10.8333M10 17.5L5.00421 13.9316C4.59364 13.6383 4.38835 13.4917 4.27752 13.2763C4.16669 13.0609 4.16669 12.8087 4.16669 12.3041V6.66667M10 17.5L14.9958 13.9316C15.4064 13.6383 15.6117 13.4917 15.7225 13.2763C15.8334 13.0609 15.8334 12.8087 15.8334 12.3041V6.66667M10 10.8333L4.16669 6.66667M10 10.8333L15.8334 6.66667M4.16669 6.66667L8.83754 3.33034C9.39888 2.92938 9.67956 2.7289 10 2.7289C10.3205 2.7289 10.6012 2.92938 11.1625 3.33034L15.8334 6.66667" stroke="#59A52C" stroke-width="2" stroke-linejoin="round"/>
</svg>
