<svg width="20" height="20" viewBox="0 0 20 20" fill="none" xmlns="http://www.w3.org/2000/svg">
<path d="M8.15815 16.4473L8.47438 17.396H8.47438L8.15815 16.4473ZM12.1581 15.114L12.4744 16.0626L12.4744 16.0626L12.1581 15.114ZM16.3738 6.12622L15.6667 5.41911L16.3738 6.12622ZM12.7929 9.70711L13.5 10.4142L12.7929 9.70711ZM4.33337 4.33333H15.6667V2.33333H4.33337V4.33333ZM4.33337 5.41911V4.33333H2.33337V5.41911H4.33337ZM7.91425 8.99999L4.33337 5.41911L2.91916 6.83333L6.50004 10.4142L7.91425 8.99999ZM6.50004 10.4142V15.973H8.50004V10.4142H6.50004ZM6.50004 15.973C6.50004 16.9968 7.50308 17.7197 8.47438 17.396L7.84192 15.4986C8.16569 15.3907 8.50004 15.6317 8.50004 15.973H6.50004ZM8.47438 17.396L12.4744 16.0626L11.8419 14.1653L7.84192 15.4986L8.47438 17.396ZM12.4744 16.0626C13.0869 15.8585 13.5 15.2853 13.5 14.6396H11.5C11.5 14.4244 11.6378 14.2333 11.8419 14.1653L12.4744 16.0626ZM13.5 14.6396V10.4142H11.5V14.6396H13.5ZM15.6667 5.41911L12.0858 9L13.5 10.4142L17.0809 6.83333L15.6667 5.41911ZM15.6667 4.33333V5.41912H17.6667V4.33333H15.6667ZM17.0809 6.83333C17.456 6.45826 17.6667 5.94955 17.6667 5.41912H15.6667V5.41911L17.0809 6.83333ZM13.5 10.4142V10.4142L12.0858 9C11.7107 9.37507 11.5 9.88378 11.5 10.4142H13.5ZM6.50004 10.4142H8.50004C8.50004 9.88377 8.28932 9.37506 7.91425 8.99999L6.50004 10.4142ZM2.33337 5.41911C2.33337 5.94955 2.54409 6.45826 2.91916 6.83333L4.33337 5.41911H4.33337H2.33337ZM15.6667 4.33333L15.6667 4.33333H17.6667C17.6667 3.22876 16.7713 2.33333 15.6667 2.33333V4.33333ZM4.33337 2.33333C3.2288 2.33333 2.33337 3.22876 2.33337 4.33333H4.33337V2.33333Z" fill="currentColor"/>
</svg>
