<svg width="20" height="20" viewBox="0 0 20 20" fill="none" xmlns="http://www.w3.org/2000/svg">
<path d="M3.33331 6.5C3.33331 4.61438 3.33331 3.67157 3.9191 3.08579C4.50489 2.5 5.44769 2.5 7.33331 2.5H12.6666C14.5523 2.5 15.4951 2.5 16.0809 3.08579C16.6666 3.67157 16.6666 4.61438 16.6666 6.5V11.5C16.6666 14.3284 16.6666 15.7426 15.788 16.6213C14.9093 17.5 13.4951 17.5 10.6666 17.5H9.33331C6.50488 17.5 5.09067 17.5 4.21199 16.6213C3.33331 15.7426 3.33331 14.3284 3.33331 11.5V6.5Z" stroke="#59A52C" stroke-width="2"/>
<path d="M12.5 15L12.5 17.5M7.5 15L7.5 17.5" stroke="#59A52C" stroke-width="2" stroke-linecap="round"/>
<path d="M7.5 6.6665L12.5 6.6665" stroke="#59A52C" stroke-width="2" stroke-linecap="round"/>
<path d="M7.5 10L12.5 10" stroke="#59A52C" stroke-width="2" stroke-linecap="round"/>
</svg>
