<svg width="20" height="20" viewBox="0 0 20 20" fill="none" xmlns="http://www.w3.org/2000/svg">
<path d="M10 3.3335L4.16669 5.8335L10 8.3335L15.8334 5.8335L10 3.3335Z" stroke="#59A52C" stroke-width="2" stroke-linejoin="round"/>
<path fill-rule="evenodd" clip-rule="evenodd" d="M5.21991 8.46045L3.77277 9.08065C3.40508 9.23823 3.16669 9.59977 3.16669 9.9998C3.16669 10.3998 3.40508 10.7614 3.77277 10.9189L9.6061 13.4189C9.85765 13.5268 10.1424 13.5268 10.3939 13.4189L16.2273 10.9189C16.595 10.7614 16.8334 10.3998 16.8334 9.9998C16.8334 9.59977 16.595 9.23823 16.2273 9.08065L14.7801 8.46045L12.2415 9.54842L13.2948 9.9998L10 11.4118L6.70528 9.9998L7.7585 9.54842L5.21991 8.46045Z" fill="#59A52C"/>
<path fill-rule="evenodd" clip-rule="evenodd" d="M5.21991 12.6274L3.77277 13.2476C3.40508 13.4052 3.16669 13.7668 3.16669 14.1668C3.16669 14.5668 3.40508 14.9284 3.77277 15.0859L9.6061 17.5859C9.85765 17.6937 10.1424 17.6937 10.3939 17.5859L16.2273 15.0859C16.595 14.9284 16.8334 14.5668 16.8334 14.1668C16.8334 13.7668 16.595 13.4052 16.2273 13.2476L14.7801 12.6274L12.2415 13.7154L13.2948 14.1668L10 15.5788L6.70528 14.1668L7.7585 13.7154L5.21991 12.6274Z" fill="#59A52C"/>
</svg>
