<svg width="183" height="32" viewBox="0 0 183 32" fill="none" xmlns="http://www.w3.org/2000/svg">
<path d="M29.4627 9.45651C29.0756 8.91655 28.5464 8.46301 27.9328 8.0859L27.8426 8.02891C24.7285 6.12411 20.818 5.90391 20.818 5.90391C20.818 5.90391 16.3085 5.44426 12.1019 5.96887C13.4398 5.84594 17.6501 5.86862 21.7845 10.205C26.666 15.3249 21.6979 18.4021 18.3863 17.8496C22.594 18.6568 27.2857 18.3308 29.43 14.1069C30.404 12.1882 30.2841 10.7273 29.5707 9.61779C30.7189 10.8324 31.1252 12.5424 29.9181 14.9315C26.0638 22.5591 14.2672 17.9794 10.9209 16.2073C7.57464 14.4353 3.94949 10.5275 6.84264 8.04662C7.20472 7.73615 7.69351 7.47705 8.27151 7.26127C7.04643 7.68595 6.01598 8.26973 5.35741 9.06614C2.09682 13.0093 6.18238 18.7176 9.95369 21.5341C13.725 24.3507 27.0199 31.6301 31.3637 19.5062C33.1634 14.4833 31.755 11.376 29.4627 9.45651Z" fill="url(#paint0_linear_1223_19720)"/>
<path d="M9.97941 14.753C9.85727 14.5707 9.47538 13.8082 10.6131 12.6171C11.8928 11.2775 15.0977 9.79928 18.9454 10.1724C18.9454 10.1724 20.524 10.2796 21.2339 11.1559C21.1003 10.9797 20.9563 10.8008 20.8006 10.6193C17.1321 6.34152 13.3962 6.31914 12.2091 6.44041C12.0799 6.45833 11.951 6.47742 11.8226 6.49773C10.8438 6.6525 9.89403 6.87832 9.05177 7.20142C8.55688 7.40585 8.1384 7.65134 7.82842 7.94549C5.73917 9.928 7.62017 12.8723 9.97941 14.753Z" fill="url(#paint1_linear_1223_19720)"/>
<path d="M45.4759 15.9073H50.5127V17.7487H43.6173V5.98206H50.0853V7.82347H45.4759V10.5488H49.7507V12.3902H45.4759V15.9073ZM59.6199 5.98206H61.4785V17.7671H59.3969L54.3043 9.24136V17.7671H52.4457V5.98206H53.4679H53.4865H54.5273L59.6199 14.5262V5.98206ZM71.9053 6.00048H73.7825C73.9126 7.49202 73.7267 9.00198 73.2249 10.5488C72.6487 12.2981 71.7752 13.8265 71.0132 15.1523C70.4184 16.2019 69.9352 17.0674 69.6936 17.7671H67.4818C67.2402 17.0674 66.757 16.2019 66.1622 15.1523C65.3816 13.8265 64.508 12.2981 63.9505 10.5488C63.4486 9.00198 63.2628 7.49202 63.3929 6.00048H65.2515C64.9169 9.27819 66.4224 11.9114 67.7792 14.25C68.058 14.7472 68.3368 15.226 68.5784 15.7047C68.8386 15.226 69.1174 14.7472 69.3962 14.25C70.7344 11.9114 72.2398 9.27819 71.9053 6.00048ZM77.667 17.7671H75.8084V6.00048H77.667V17.7671ZM87.183 17.7671C87.1087 16.1098 86.0493 15.0786 84.5252 13.8265H81.9604V17.7671H80.1018V6.00048H81.3842H81.9604H85.1943C85.7147 6.00048 86.198 6.09255 86.6812 6.25827C87.1459 6.44241 87.5919 6.71863 87.9451 7.05008C88.7443 7.78665 89.1903 8.79942 89.1903 9.90427C89.1903 11.0275 88.7443 12.0403 87.9451 12.7585C87.6477 13.0531 87.2946 13.2741 86.9228 13.4582C87.2388 13.7712 87.5362 14.0843 87.815 14.4526C88.5956 15.4469 88.9859 16.5149 89.0417 17.6935V17.7671H87.183ZM81.9604 11.9851H85.1943C86.2352 11.9851 87.3317 11.2485 87.3317 9.90427C87.3317 8.56004 86.2352 7.84189 85.1943 7.84189H81.9604V11.9851ZM99.8587 7.54726C100.714 8.59687 101.16 10.0516 101.16 11.8746C101.16 13.6976 100.714 15.1523 99.8587 16.2019C99.3941 16.7727 98.7993 17.1963 98.1116 17.4909C97.424 17.7855 96.6434 17.9328 95.7698 17.9328C94.8963 17.9328 94.1157 17.7855 93.428 17.4909C92.7403 17.1963 92.1455 16.7727 91.6809 16.2019C90.8259 15.1523 90.3798 13.6976 90.3798 11.8746C90.3798 10.0516 90.8259 8.59687 91.6809 7.54726C92.1455 6.97642 92.7403 6.53449 93.428 6.23986C94.1157 5.94523 94.8963 5.79792 95.7698 5.79792C96.6434 5.79792 97.424 5.94523 98.1116 6.23986C98.7993 6.53449 99.3941 6.97642 99.8587 7.54726ZM98.4276 15.0418C99.0038 14.3421 99.3012 13.2372 99.3012 11.8746C99.3012 10.4935 99.0038 9.40709 98.4276 8.70735C97.8514 8.00762 96.9593 7.63933 95.7698 7.63933C94.5989 7.63933 93.7068 8.00762 93.1306 8.70735C92.5544 9.40709 92.2385 10.4935 92.2385 11.8746C92.2385 13.2372 92.5544 14.3421 93.1306 15.0418C93.7068 15.7416 94.5989 16.0914 95.7698 16.0914C96.9593 16.0914 97.8514 15.7416 98.4276 15.0418ZM116.196 15.3917C116.382 15.3364 116.549 15.2812 116.679 15.2444L117.218 17.0121C117.088 17.049 116.939 17.0858 116.772 17.141C116.029 17.3804 114.913 17.7487 113.724 17.896C113.352 17.9512 112.999 17.9697 112.665 17.9697C111.568 17.9697 110.676 17.7303 109.988 17.2331C108.929 16.4781 108.408 15.2075 108.408 13.4766V10.2173C108.408 8.48638 108.929 7.21581 109.988 6.46083C110.899 5.81633 112.144 5.57695 113.724 5.79792C114.913 5.94523 116.029 6.31352 116.772 6.5529C116.939 6.60814 117.088 6.64497 117.218 6.6818L116.679 8.44956C116.549 8.41273 116.382 8.35749 116.196 8.30224C115.527 8.08127 114.505 7.74982 113.482 7.62092C112.404 7.47361 111.587 7.58409 111.085 7.95237C110.546 8.33907 110.267 9.11246 110.267 10.2173V13.4766C110.267 14.5815 110.546 15.3549 111.085 15.7416C111.587 16.1098 112.404 16.2203 113.482 16.073C114.505 15.9441 115.527 15.6127 116.196 15.3917ZM120.582 17.7671H118.649L122.069 6.00048H124.876L128.314 17.7671H126.362L125.359 14.3053L121.307 15.2444L120.582 17.7671ZM123.482 7.80506L121.902 13.2188L124.838 12.5191L123.482 7.80506ZM137.979 7.05008C138.778 7.76823 139.224 8.79942 139.224 9.90427C139.224 11.0275 138.778 12.0403 137.979 12.7769C137.607 13.1083 137.18 13.3845 136.696 13.5687C136.232 13.7344 135.73 13.8265 135.228 13.8265H131.994V17.7671H130.135V5.98206H135.228C135.73 5.98206 136.232 6.07413 136.696 6.25827C137.18 6.44241 137.607 6.70021 137.979 7.05008ZM135.228 11.9851C136.25 11.9851 137.365 11.2669 137.365 9.90427C137.365 8.54163 136.25 7.82347 135.228 7.82347H131.994V11.9851H135.228ZM148.127 5.98206V7.82347H145.227V17.7671H143.369V7.82347H140.488V5.98206H148.127ZM154.26 18.1722C153.033 18.1722 151.881 17.7119 151.045 16.8832C150.246 16.1098 149.799 15.0786 149.799 14.0475V5.98206H151.658V14.0475C151.658 15.1523 152.662 16.3308 154.26 16.3308C155.877 16.3308 156.862 15.1523 156.862 14.0475V5.98206H158.721V14.0475C158.721 15.0786 158.275 16.1098 157.494 16.8832C156.658 17.7119 155.505 18.1722 154.26 18.1722ZM168.014 17.7671C167.939 16.1098 166.88 15.0786 165.356 13.8265H162.791V17.7671H160.933V6.00048H162.215H162.791H166.025C166.546 6.00048 167.029 6.09255 167.512 6.25827C167.977 6.44241 168.423 6.71863 168.776 7.05008C169.575 7.78665 170.021 8.79942 170.021 9.90427C170.021 11.0275 169.575 12.0403 168.776 12.7585C168.478 13.0531 168.125 13.2741 167.754 13.4582C168.07 13.7712 168.367 14.0843 168.646 14.4526C169.426 15.4469 169.817 16.5149 169.872 17.6935V17.7671H168.014ZM162.791 11.9851H166.025C167.066 11.9851 168.163 11.2485 168.163 9.90427C168.163 8.56004 167.066 7.84189 166.025 7.84189H162.791V11.9851ZM173.794 15.9073H178.831V17.7487H171.935V5.98206H178.403V7.82347H173.794V10.5488H178.069V12.3902H173.794V15.9073Z" fill="#59A52C"/>
<path d="M59.1941 22.1759C59.4726 22.1759 59.7334 22.2274 59.9767 22.3304C60.2199 22.4334 60.4195 22.5842 60.5754 22.7829L60.1298 23.1196C59.8885 22.8215 59.571 22.6725 59.1773 22.6725C58.7503 22.6725 58.3985 22.8234 58.1218 23.1251C57.8451 23.4268 57.7068 23.8057 57.7068 24.2619C57.7068 24.7034 57.8433 25.0676 58.1162 25.3546C58.3892 25.6416 58.7429 25.785 59.1773 25.785C59.6118 25.785 59.9553 25.6103 60.2078 25.2608L60.659 25.5974C60.503 25.8034 60.2951 25.969 60.0351 26.0941C59.7752 26.2192 59.4856 26.2817 59.1662 26.2817C58.7874 26.2817 58.4439 26.1907 58.1357 26.0085C57.8275 25.8264 57.5843 25.5762 57.406 25.258C57.2278 24.9398 57.1387 24.6059 57.1387 24.2564C57.1387 23.653 57.3299 23.1554 57.7124 22.7636C58.0949 22.3718 58.5887 22.1759 59.1941 22.1759ZM64.1247 22.1759C64.7114 22.1759 65.2007 22.369 65.5925 22.7553C65.9842 23.1416 66.1801 23.6328 66.1801 24.2288C66.1801 24.6077 66.0928 24.9545 65.9183 25.2691C65.7438 25.5836 65.4978 25.831 65.1803 26.0113C64.8628 26.1916 64.5109 26.2817 64.1247 26.2817C63.7423 26.2817 63.3932 26.1925 63.0775 26.0141C62.7619 25.8356 62.515 25.5891 62.3367 25.2746C62.1585 24.96 62.0694 24.6114 62.0694 24.2288C62.0694 23.6475 62.2615 23.16 62.6459 22.7664C63.0302 22.3727 63.5232 22.1759 64.1247 22.1759ZM62.6375 24.2288C62.6375 24.6703 62.7768 25.04 63.0553 25.338C63.3338 25.636 63.6903 25.785 64.1247 25.785C64.5518 25.785 64.9064 25.6379 65.1886 25.3436C65.4709 25.0492 65.612 24.6776 65.612 24.2288C65.612 23.7836 65.4727 23.413 65.1942 23.1168C64.9157 22.8206 64.5574 22.6726 64.1192 22.6726C63.6958 22.6726 63.3431 22.8197 63.0608 23.114C62.7786 23.4084 62.6375 23.78 62.6375 24.2288ZM68.6599 22.2752L70.8323 25.487H70.8434V22.2752H71.3782V26.1824H70.6986L68.504 22.9706H68.4928V26.1824H67.9581V22.2752H68.6599ZM74.1031 22.2752L76.2754 25.487H76.2866V22.2752H76.8213V26.1824H76.1417L73.9471 22.9706H73.936V26.1824H73.4012V22.2752H74.1031ZM81.3899 22.2752V22.7719H79.3791V23.9363H81.2507V24.433H79.3791V25.6857H81.4902V26.1824H78.8444V22.2752H81.3899ZM85.0673 22.1759C85.3458 22.1759 85.6067 22.2274 85.8499 22.3304C86.0931 22.4334 86.2928 22.5842 86.4487 22.7829L86.0031 23.1196C85.7617 22.8215 85.4443 22.6725 85.0506 22.6725C84.6236 22.6725 84.2717 22.8234 83.9951 23.1251C83.7184 23.4268 83.5801 23.8057 83.5801 24.2619C83.5801 24.7034 83.7166 25.0676 83.9895 25.3546C84.2624 25.6416 84.6161 25.785 85.0506 25.785C85.4851 25.785 85.8286 25.6103 86.0811 25.2608L86.5323 25.5974C86.3763 25.8034 86.1683 25.969 85.9084 26.0941C85.6485 26.2192 85.3588 26.2817 85.0395 26.2817C84.6607 26.2817 84.3172 26.1907 84.009 26.0085C83.7008 25.8264 83.4576 25.5762 83.2793 25.258C83.1011 24.9398 83.0119 24.6059 83.0119 24.2564C83.0119 23.653 83.2032 23.1554 83.5857 22.7636C83.9682 22.3718 84.462 22.1759 85.0673 22.1759ZM90.8168 22.2752V22.7719H89.5468V26.1824H89.0121V22.7719H87.7421V22.2752H90.8168ZM92.929 22.2752V26.1824H92.3943V22.2752H92.929ZM95.6539 22.2752L97.8263 25.487H97.8374V22.2752H98.3721V26.1824H97.6926L95.498 22.9706H95.4868V26.1824H94.9521V22.2752H95.6539ZM102.211 22.1759C102.868 22.1759 103.357 22.3451 103.676 22.6836L103.297 23.0864C103.004 22.8105 102.64 22.6726 102.206 22.6726C101.771 22.6726 101.415 22.8206 101.136 23.1168C100.858 23.413 100.718 23.7836 100.718 24.2288C100.718 24.6777 100.866 25.0493 101.161 25.3436C101.456 25.6379 101.819 25.785 102.25 25.785C102.659 25.785 102.982 25.717 103.219 25.5809V24.4937H102.345V23.997H103.754V25.923C103.561 26.0371 103.328 26.1254 103.055 26.1879C102.782 26.2504 102.517 26.2817 102.261 26.2817C101.641 26.2817 101.134 26.0904 100.741 25.7078C100.347 25.3252 100.15 24.8321 100.15 24.2288C100.15 23.6475 100.344 23.16 100.732 22.7664C101.12 22.3727 101.613 22.1759 102.211 22.1759ZM110.841 22.2752V22.7719H108.831V23.9363H110.702V24.433H108.831V25.6857H110.942V26.1824H108.296V22.2752H110.841ZM112.787 22.2752L113.945 25.4539H113.956L115.159 22.2752H115.744L114.19 26.1824H113.689L112.168 22.2752H112.787ZM119.773 22.2752V22.7719H117.762V23.9363H119.633V24.433H117.762V25.6857H119.873V26.1824H117.227V22.2752H119.773ZM123.055 22.2752C123.441 22.2752 123.743 22.3709 123.962 22.5622C124.182 22.7535 124.291 23.0221 124.291 23.3679C124.291 23.6291 124.201 23.8572 124.021 24.0522C123.841 24.2472 123.61 24.3631 123.327 24.3999H123.322L124.441 26.1824H123.773L122.77 24.4606H122.174V26.1824H121.64V22.2752H123.055ZM122.899 23.997C123.177 23.997 123.384 23.9464 123.52 23.8453C123.655 23.7441 123.723 23.585 123.723 23.3679C123.723 22.9485 123.448 22.7388 122.899 22.7388H122.174V23.997L122.899 23.997ZM126.075 22.2752L127.15 23.9915L128.258 22.2752H128.91L127.417 24.5158V26.1824H126.882V24.5158L125.39 22.2752H126.075ZM134.321 22.2752C134.681 22.2752 134.967 22.3635 135.178 22.5401C135.39 22.7167 135.496 22.954 135.496 23.252C135.496 23.6751 135.269 23.9621 134.816 24.1129V24.1239H134.822C135.078 24.1534 135.283 24.2592 135.437 24.4413C135.592 24.6234 135.669 24.8414 135.669 25.0952C135.669 25.4227 135.541 25.6857 135.287 25.8844C135.033 26.0831 134.705 26.1824 134.304 26.1824H132.928V22.2752H134.321ZM134.209 23.8977C134.432 23.8977 134.608 23.8471 134.736 23.7459C134.864 23.6447 134.928 23.5003 134.928 23.3127C134.928 23.1361 134.872 22.9963 134.761 22.8933C134.649 22.7903 134.503 22.7388 134.321 22.7388H133.463V23.8977H134.209ZM134.271 25.7188C134.534 25.7188 134.738 25.6581 134.883 25.5367C135.028 25.4153 135.1 25.2553 135.1 25.0566C135.1 24.8358 135.027 24.6648 134.88 24.5434C134.734 24.422 134.527 24.3612 134.259 24.3612H133.463V25.7188H134.271ZM137.909 22.2752V24.6868C137.909 25.0069 137.999 25.27 138.179 25.476C138.359 25.682 138.6 25.785 138.9 25.785C139.201 25.785 139.442 25.682 139.622 25.476C139.802 25.27 139.892 25.0069 139.892 24.6868V22.2752H140.427V24.7751C140.427 25.0437 140.363 25.2948 140.234 25.5284C140.106 25.7621 139.924 25.946 139.689 26.0803C139.453 26.2146 139.19 26.2817 138.9 26.2817C138.455 26.2817 138.089 26.1373 137.803 25.8485C137.517 25.5597 137.374 25.2019 137.374 24.7751V22.2752H137.909ZM143.508 22.1759C144.021 22.1759 144.399 22.3249 144.644 22.6229L144.21 23.0147C144.143 22.9117 144.048 22.8289 143.926 22.7664C143.803 22.7039 143.662 22.6726 143.502 22.6726C143.272 22.6726 143.088 22.7287 142.948 22.8409C142.809 22.9531 142.739 23.0975 142.739 23.2741C142.739 23.5684 142.936 23.7745 143.33 23.8922L143.826 24.0522C144.104 24.1405 144.317 24.2638 144.463 24.422C144.61 24.5802 144.683 24.7972 144.683 25.0732C144.683 25.4337 144.554 25.7253 144.296 25.9479C144.038 26.1704 143.71 26.2817 143.313 26.2817C142.745 26.2817 142.325 26.1015 142.054 25.7409L142.494 25.3657C142.58 25.4981 142.697 25.6011 142.845 25.6747C142.994 25.7483 143.155 25.7851 143.33 25.7851C143.549 25.7851 143.735 25.7225 143.887 25.5974C144.039 25.4724 144.115 25.3178 144.115 25.1339C144.115 24.9978 144.069 24.8837 143.976 24.7917C143.883 24.6998 143.716 24.617 143.475 24.5434L143.124 24.4275C142.771 24.3098 142.524 24.1598 142.383 23.9777C142.242 23.7956 142.171 23.5611 142.171 23.2741C142.171 22.9687 142.296 22.7094 142.544 22.496C142.793 22.2826 143.114 22.1759 143.508 22.1759ZM147.018 22.2752V26.1824H146.484V22.2752H147.018ZM149.743 22.2752L151.916 25.487H151.927V22.2752H152.461V26.1824H151.782L149.587 22.9706H149.576V26.1824H149.041V22.2752H149.743ZM157.03 22.2752V22.7719H155.019V23.9363H156.891V24.433H155.019V25.6857H157.13V26.1824H154.485V22.2752H157.03ZM160.028 22.1759C160.54 22.1759 160.919 22.3249 161.164 22.6229L160.73 23.0147C160.663 22.9117 160.568 22.8289 160.446 22.7664C160.323 22.7039 160.182 22.6726 160.022 22.6726C159.792 22.6726 159.607 22.7287 159.468 22.8409C159.329 22.9531 159.259 23.0975 159.259 23.2741C159.259 23.5684 159.456 23.7745 159.85 23.8922L160.345 24.0522C160.624 24.1405 160.837 24.2638 160.983 24.422C161.13 24.5802 161.203 24.7972 161.203 25.0732C161.203 25.4337 161.074 25.7253 160.816 25.9479C160.558 26.1704 160.23 26.2817 159.833 26.2817C159.265 26.2817 158.845 26.1015 158.574 25.7409L159.014 25.3657C159.1 25.4981 159.217 25.6011 159.365 25.6747C159.514 25.7483 159.675 25.7851 159.85 25.7851C160.069 25.7851 160.254 25.7225 160.407 25.5974C160.559 25.4724 160.635 25.3178 160.635 25.1339C160.635 24.9978 160.589 24.8837 160.496 24.7917C160.403 24.6998 160.236 24.617 159.995 24.5434L159.644 24.4275C159.291 24.3098 159.044 24.1598 158.903 23.9777C158.762 23.7956 158.691 23.5611 158.691 23.2741C158.691 22.9687 158.816 22.7094 159.064 22.496C159.313 22.2826 159.634 22.1759 160.028 22.1759ZM164.134 22.1759C164.647 22.1759 165.025 22.3249 165.271 22.6229L164.836 23.0147C164.769 22.9117 164.675 22.8289 164.552 22.7664C164.429 22.7039 164.288 22.6726 164.129 22.6726C163.898 22.6726 163.714 22.7287 163.574 22.8409C163.435 22.9531 163.366 23.0975 163.366 23.2741C163.366 23.5684 163.562 23.7745 163.956 23.8922L164.452 24.0522C164.73 24.1405 164.943 24.2638 165.09 24.422C165.236 24.5802 165.31 24.7972 165.31 25.0732C165.31 25.4337 165.181 25.7253 164.922 25.9479C164.664 26.1704 164.337 26.2817 163.939 26.2817C163.371 26.2817 162.952 26.1015 162.68 25.7409L163.12 25.3657C163.206 25.4981 163.323 25.6011 163.471 25.6747C163.62 25.7483 163.781 25.7851 163.956 25.7851C164.175 25.7851 164.361 25.7225 164.513 25.5974C164.665 25.4724 164.741 25.3178 164.741 25.1339C164.741 24.9978 164.695 24.8837 164.602 24.7917C164.509 24.6998 164.342 24.617 164.101 24.5434L163.75 24.4275C163.397 24.3098 163.15 24.1598 163.009 23.9777C162.868 23.7956 162.797 23.5611 162.797 23.2741C162.797 22.9687 162.922 22.7094 163.171 22.496C163.419 22.2826 163.741 22.1759 164.134 22.1759Z" fill="url(#paint2_linear_1223_19720)"/>
<defs>
<linearGradient id="paint0_linear_1223_19720" x1="4.16907" y1="5.71759" x2="32.1821" y2="5.71759" gradientUnits="userSpaceOnUse">
<stop stop-color="#006838"/>
<stop offset="1" stop-color="#96CF24"/>
</linearGradient>
<linearGradient id="paint1_linear_1223_19720" x1="6.92566" y1="6.40921" x2="21.2339" y2="6.40921" gradientUnits="userSpaceOnUse">
<stop stop-color="#006838"/>
<stop offset="1" stop-color="#96CF24"/>
</linearGradient>
<linearGradient id="paint2_linear_1223_19720" x1="57.1387" y1="22.1759" x2="165.31" y2="22.1759" gradientUnits="userSpaceOnUse">
<stop stop-color="#006838"/>
<stop offset="1" stop-color="#96CF24"/>
</linearGradient>
</defs>
</svg>
