<svg width="60" height="60" viewBox="0 0 60 60" fill="none" xmlns="http://www.w3.org/2000/svg">
<path d="M24.4478 25.9694C24.7622 23.1403 27.1535 21 30 21V21C32.8465 21 35.2378 23.1403 35.5522 25.9694L35.804 28.2356C35.8072 28.2645 35.8088 28.279 35.8104 28.2933C35.9394 29.4169 36.3051 30.5005 36.8836 31.4725C36.8909 31.4849 36.8984 31.4973 36.9133 31.5222L37.4914 32.4856C38.0159 33.3599 38.2782 33.797 38.2216 34.1559C38.1839 34.3946 38.061 34.6117 37.8757 34.7668C37.5971 35 37.0873 35 36.0678 35H23.9322C22.9127 35 22.4029 35 22.1243 34.7668C21.939 34.6117 21.8161 34.3946 21.7784 34.1559C21.7218 33.797 21.9841 33.3599 22.5086 32.4856L23.0867 31.5222C23.1016 31.4973 23.1091 31.4849 23.1164 31.4725C23.6949 30.5005 24.0606 29.4169 24.1896 28.2933C24.1912 28.279 24.1928 28.2645 24.196 28.2356L24.4478 25.9694Z" stroke="#B3B3B3" stroke-width="2"/>
<path d="M27.1022 35.6647C27.2731 36.6215 27.6498 37.467 28.1737 38.0701C28.6976 38.6731 29.3396 39 30 39C30.6604 39 31.3024 38.6731 31.8263 38.0701C32.3502 37.467 32.7269 36.6215 32.8978 35.6647" stroke="#B3B3B3" stroke-width="2" stroke-linecap="round"/>
</svg>
