<svg width="16" height="16" viewBox="0 0 16 16" fill="none" xmlns="http://www.w3.org/2000/svg">
<path stroke="currentColor" d="M2.66675 5.33341L2.31319 5.68697L1.95964 5.33341L2.31319 4.97986L2.66675 5.33341ZM6.00008 13.1667C5.72394 13.1667 5.50008 12.9429 5.50008 12.6667C5.50008 12.3906 5.72394 12.1667 6.00008 12.1667L6.00008 13.1667ZM5.64653 9.0203L2.31319 5.68697L3.0203 4.97986L6.35363 8.31319L5.64653 9.0203ZM2.31319 4.97986L5.64653 1.64653L6.35363 2.35363L3.0203 5.68697L2.31319 4.97986ZM2.66675 4.83341L9.66675 4.83341L9.66675 5.83341L2.66675 5.83341L2.66675 4.83341ZM9.66675 13.1667L6.00008 13.1667L6.00008 12.1667L9.66675 12.1667L9.66675 13.1667ZM13.8334 9.00008C13.8334 11.3013 11.9679 13.1667 9.66675 13.1667L9.66675 12.1667C11.4157 12.1667 12.8334 10.749 12.8334 9.00008L13.8334 9.00008ZM9.66675 4.83341C11.9679 4.83341 13.8334 6.69889 13.8334 9.00008L12.8334 9.00008C12.8334 7.25118 11.4156 5.83341 9.66675 5.83341L9.66675 4.83341Z" fill="#59A52C"/>
</svg>
