<svg width="80" height="80" viewBox="0 0 80 80" fill="none" xmlns="http://www.w3.org/2000/svg">
<path d="M48.625 53.3166L53.3383 48.605L73.37 68.6366L68.6567 73.3483L48.625 53.3166Z" fill="#CCCCCC"/>
<path d="M33.3332 60C48.0608 60 59.9998 48.0609 59.9998 33.3333C59.9998 18.6057 48.0608 6.66663 33.3332 6.66663C18.6056 6.66663 6.6665 18.6057 6.6665 33.3333C6.6665 48.0609 18.6056 60 33.3332 60Z" fill="#B3B3B3"/>
<path d="M54.0835 58.9L58.7952 54.1866L73.2885 68.68L68.5752 73.3933L54.0835 58.9Z" fill="#F2F2F2"/>
<path d="M33.3332 55C45.2993 55 54.9998 45.2995 54.9998 33.3333C54.9998 21.3671 45.2993 11.6666 33.3332 11.6666C21.367 11.6666 11.6665 21.3671 11.6665 33.3333C11.6665 45.2995 21.367 55 33.3332 55Z" fill="#F7F7F7"/>
<path d="M44.8336 23.6667C42.0002 20.3334 37.8336 18.3334 33.3336 18.3334C28.8336 18.3334 24.6669 20.3334 21.8336 23.6667C21.1669 24.3334 21.3336 25.5 22.0002 26C22.6669 26.6667 23.8336 26.5 24.3336 25.8334C26.6669 23.1667 29.8336 21.6667 33.3336 21.6667C36.8336 21.6667 40.0002 23.1667 42.3336 25.8334C42.6669 26.1667 43.1669 26.5 43.6669 26.5C44.0002 26.5 44.5002 26.3334 44.6669 26.1667C45.3336 25.5 45.3336 24.3334 44.8336 23.6667Z" fill="#E5E5E5"/>
</svg>
