<svg width="18" height="9" viewBox="0 0 18 9" fill="none" xmlns="http://www.w3.org/2000/svg">
<path fill-rule="evenodd" clip-rule="evenodd" d="M15.5207 3.18583C15.6222 3.08434 15.7884 3.08878 15.8809 3.1985C17.1908 4.75204 17.9399 6.70842 17.9965 8.7497C18.0004 8.88771 17.8881 8.99971 17.75 8.99971H13.245C13.1069 8.99971 12.9958 8.88766 12.9871 8.74986C12.9416 8.02201 12.6977 7.32341 12.2864 6.72825C12.2148 6.62462 12.2229 6.48363 12.312 6.39455L15.5207 3.18583ZM14.8009 2.11854C14.9106 2.21105 14.915 2.37726 14.8136 2.47875L11.6048 5.6875C11.5157 5.77657 11.3748 5.78472 11.2711 5.71311C10.8049 5.39096 10.2753 5.1716 9.71786 5.06977C9.59394 5.04713 9.50001 4.94169 9.50001 4.81571V0.277878C9.50001 0.134352 9.62067 0.0199662 9.76368 0.0321393C11.6178 0.189962 13.3782 0.919137 14.8009 2.11854ZM8.50001 0.277878C8.50001 0.134352 8.37935 0.0199663 8.23635 0.0321393C6.38225 0.189963 4.6218 0.919142 3.19913 2.11855C3.0894 2.21107 3.08496 2.37727 3.18645 2.47876L6.39521 5.6875C6.48428 5.77658 6.62525 5.78473 6.72889 5.71311C7.19508 5.39097 7.72472 5.1716 8.28216 5.06977C8.40609 5.04713 8.50001 4.94169 8.50001 4.81571V0.277878ZM5.71364 6.72826C5.78527 6.62463 5.77713 6.48364 5.68805 6.39456L2.47932 3.18585C2.37784 3.08436 2.21164 3.08879 2.11912 3.19852C0.80926 4.75205 0.0601499 6.70842 0.00348268 8.74969C-0.000348806 8.88771 0.111942 8.9997 0.250014 8.9997L4.75507 8.9997C4.89314 8.9997 5.00425 8.88766 5.01288 8.74986C5.05846 8.02201 5.30229 7.32342 5.71364 6.72826Z" fill="#E5E5E5"/>
</svg>
