<svg width="24" height="24" viewBox="0 0 24 24" fill="none" xmlns="http://www.w3.org/2000/svg">
<rect x="11" y="7" width="2" height="8" rx="1" fill="#D1A95D"/>
<rect x="11" y="16" width="2" height="2" rx="1" fill="#D1A95D"/>
<path d="M18.712 5.78862L12.7878 3.24968C12.2847 3.03406 11.7153 3.03406 11.2122 3.24968L5.28797 5.78862C4.47806 6.13572 3.99073 6.972 4.08804 7.84777L4.73939 13.7099C4.93906 15.5069 5.8263 17.157 7.21529 18.3144L10.7196 21.2347C11.4613 21.8528 12.5387 21.8528 13.2804 21.2347L16.7847 18.3144C18.1737 17.157 19.0609 15.5069 19.2606 13.7099L19.912 7.84777C20.0093 6.972 19.5219 6.13572 18.712 5.78862Z" stroke="#D1A95D" stroke-width="2" stroke-linecap="round"/>
</svg>
